<svg id="Layer_1" data-name="Layer 1" xmlns="http://www.w3.org/2000/svg" width="64" height="64" viewBox="0 0 64 64"><defs><style>.cls-1{fill:#1d1d1b;}.cls-2{fill:#85bfe9;}.cls-3{fill:#e6e4da;}.cls-4{fill:#fff;}</style></defs><title>rick</title><g id="rick"><path class="cls-1" d="M9.86,27.93a28,28,0,0,1-4.5-6.77c-1.9-4.05-1.92-6.3-1.5-6.46s6.52.11,9.3.13,4,0,4-.16-.41-4.61-.76-7.05-.7-4-.49-4.06a27.75,27.75,0,0,1,8.49,2c5,1.83,6,3.61,6,3.61A37.88,37.88,0,0,1,39.64,4c4.84-1.7,6.76-1.46,6.92-1.18s-2.28,11.39-1.86,11.52a22.21,22.21,0,0,0,6.59-1.09c2.73-.89,7-3,7.45-3s.82,3.52-1.06,7.86-2.33,4.92-2.16,5a28,28,0,0,0,4.06-1.36c1.41-.59,2.15-.68,2.32-.18a15.39,15.39,0,0,1-2.57,10.52c-3.2,4.26-4.61,4.48-4.74,4.65s0,1.08,3.09,1.72,4.65.59,4.62,1.25A11.63,11.63,0,0,1,57,47.08c-4.09,2.44-4.34,2.44-4.25,2.77s.14,7,0,7.51-1.53,1.38-3.73,1a22.22,22.22,0,0,1-5.74-1.91,8.24,8.24,0,0,1-1.21-1s-3.68,1.94-4.55,2.28a7.35,7.35,0,0,1-1.62.43s0,2.82-.1,3a1,1,0,0,1-.87.21,4.93,4.93,0,0,0-1.58,0,2.12,2.12,0,0,1-1,0,10,10,0,0,0-1.58,0c-.46,0-1.58,0-1.66-.28s-.23-2.7-.23-2.7a12.77,12.77,0,0,1-4.53-1.21A8.55,8.55,0,0,1,22,55.32a9.41,9.41,0,0,1-4.84,2.53c-2.65.31-4.07,0-4-.22s2.11-6.83,1.61-6.78-9.17.4-9.88.41-1.5-.82-1.22-1.44,4-6.76,5.42-8.18,2.18-2.3,2.18-2.3a22.25,22.25,0,0,0-5.53-1.53c-2.74-.31-4.16-1.21-4-1.55a23.14,23.14,0,0,1,4.36-5.35C8.08,29.28,9.86,27.93,9.86,27.93Z"/><path class="cls-2" d="M5.86,16.34c.3-.3,13.49.06,13.53-.19S17.52,5,17.9,5a45.87,45.87,0,0,1,9,3.71c2.63,1.68,2.76,2.3,3.46,2.26s4-3.19,8.43-4.88,5.92-1.79,5.92-1.62S43.28,11.77,43,13.1s-.44,2.74-.14,2.82a27.92,27.92,0,0,0,8.25-1c3.94-1.11,6.75-2.67,6.79-2.38a54.58,54.58,0,0,1-3.62,9.08c-1.19,1.84-1.68,3.42-1.43,3.54s1.66-.3,4.35-1.11,3-.94,3-.81A13.55,13.55,0,0,1,58,30.88a32.91,32.91,0,0,1-5.56,5.86,4.19,4.19,0,0,0,2,2.6c1.17.53,5.7,1.2,5.66,1.45a12.56,12.56,0,0,1-5.31,6c-3.51,1.81-3.93,2-4,2.31s.18,7.26-.11,7.31a26.1,26.1,0,0,1-5-.92c-1.42-.49-2-.94-2-1.06a21.18,21.18,0,0,0,2.83-4.51,11.75,11.75,0,0,0,.81-3s4.57.21,5-3S50.43,40.11,49.77,40a6.22,6.22,0,0,0-1.33-.16s1.16-10.31-2.33-16-7.21-8.7-14.76-8.39-11.59,4.28-13.44,12-1.36,12.13-1.36,12.13-3.69.15-3.57,4.72,4.93,3.66,4.93,3.66A7,7,0,0,0,19,51.86c1.22,1.86,1.76,2.56,1.76,2.56S15.89,56.28,15.85,56,17.1,51.46,16.93,51s-1-1.36-1.3-1.36-9.71.41-9.8,0,2.09-3.75,4.27-6.51,3.25-3.8,3.21-4.18-1.51-2.11-4.71-2.58S4.11,36,4.19,35.83a33,33,0,0,1,5.35-5.44,7.67,7.67,0,0,0,2.52-2.18A35.37,35.37,0,0,1,7.61,22C5.84,18.67,5.74,16.47,5.86,16.34Z"/><path class="cls-1" d="M20.53,12a41.23,41.23,0,0,1-.82-4.52,20.22,20.22,0,0,1,3.66,1.38c0,.17,0,.87-.12.87a16.87,16.87,0,0,0-2.16-.44c0,.12.35,1.95.31,2.07S20.61,12.11,20.53,12Z"/><path class="cls-1" d="M36,9.5a15.82,15.82,0,0,1,3.26-2.14c1.2-.42,1-.63,1.2-.42s.46.87.34,1a20,20,0,0,0-3,1.31c-.95.63-1,1-1.24.92S36.12,9.67,36,9.5Z"/><path class="cls-3" d="M16.48,41.42a27,27,0,0,1,.7,4.85c-.12,0-2.37-.27-2.38-1.89A3.75,3.75,0,0,1,16.48,41.42Z"/><path class="cls-3" d="M48.49,41.46c.13-.13,2.37,0,2,1.94S47.7,46,47.65,45.74a22.4,22.4,0,0,1,.65-2.33C48.58,42.24,48.24,41.71,48.49,41.46Z"/><path class="cls-3" d="M31.2,17.22c4,0,8.85.22,12.63,6.83S47.2,35.9,46.17,41.81s-2.67,9.45-3.69,10.57a11.39,11.39,0,0,1-1.28,1.3,15.66,15.66,0,0,0-2.46-1.6c-.21.08-.5.38-.41.54s2,1.52,1.92,1.65-1.16.88-1.28.76a26,26,0,0,0-2.46-1.89c-.17,0-.66.38-.58.54s2.38,1.64,2.13,1.81-1.57.76-1.74.64-1.93-1.94-2.09-1.93-.62.25-.49.46,1.43,1.77,1.43,1.77a31.09,31.09,0,0,1-8.14-.1c-3.7-.68-6.31-4.77-7.5-9.12s-1.19-13.61.1-18.73S23.18,17.28,31.2,17.22Z"/><path class="cls-3" d="M30.23,58.37c.12-.12,1.25.07,2.37,0s1.66-.05,1.66.07.14,1.83,0,1.87a3,3,0,0,1-1.54.05,3,3,0,0,0-1.5-.32c-.41.09-.66.38-.79.21A6.16,6.16,0,0,1,30.23,58.37Z"/><path class="cls-1" d="M22.94,23.31c.33-.12,3-1.73,9.41-1.69s10.06,1.75,10.15,2.25,0,2.45-.35,2.45S39.81,24.92,32.46,25,23,26.83,22.59,26.55,21.74,23.73,22.94,23.31Z"/><path class="cls-2" d="M23.36,24c.25-.52,3.27-1.69,9.33-1.4s8.9,1.3,8.9,1.63.21.87,0,.87A29,29,0,0,0,32.41,24a43.18,43.18,0,0,0-8.87,1.27C23.2,25.17,23.28,24.13,23.36,24Z"/><path class="cls-1" d="M35.14,28c2.79-1.14,8-.31,7.81,5.38s-7.13,6.49-9.48,3.31S32.24,29.17,35.14,28Z"/><path class="cls-4" d="M35.58,28.89c2.29-.94,6.54-.26,6.41,4.42S36.13,38.63,34.2,36,33.2,29.86,35.58,28.89Z"/><path class="cls-1" d="M23.74,27.85c2.57-1.05,7.34-.29,7.19,5s-6.57,6-8.74,3.05S21.07,28.94,23.74,27.85Z"/><path class="cls-4" d="M24.15,28.68c2.11-.86,6-.24,5.91,4.07s-5.4,4.91-7.18,2.51S22,29.58,24.15,28.68Z"/><path class="cls-1" d="M25.51,31.85a1.07,1.07,0,1,1-.33,1.7A1.12,1.12,0,0,1,25.51,31.85Z"/><path class="cls-1" d="M37.27,32.29a1.07,1.07,0,1,1-.33,1.7A1.12,1.12,0,0,1,37.27,32.29Z"/><path class="cls-1" d="M21.92,37.74a5.43,5.43,0,0,0,3,1.29A8.94,8.94,0,0,0,28,38.72c.21.05.21.65.2.81a6.57,6.57,0,0,1-3.76.39,5,5,0,0,1-3-1.44C21.35,38.31,21.8,37.74,21.92,37.74Z"/><path class="cls-1" d="M36.72,39.58a5.43,5.43,0,0,0,3.27,0,8.94,8.94,0,0,0,2.7-1.46c.21,0,.45.52.5.67a6.57,6.57,0,0,1-3.32,1.81,5,5,0,0,1-3.28-.19C36.41,40.33,36.6,39.62,36.72,39.58Z"/><path class="cls-1" d="M29.78,39.79c0-.13.73-.3.78-.1s-.14,6.38,1.57,6.34,1.14-6.36,1.3-6.46a2.23,2.23,0,0,1,.79,0s.95,7.59-2.05,7.55S29.79,39.87,29.78,39.79Z"/><path class="cls-1" d="M22.15,49.3a5.31,5.31,0,0,1,.19-1.75c.24-.54,1-1.17,1.15-1.13s.5.45.38.62-.87.59-.9,1.09,0,1.37-.11,1.41A1.22,1.22,0,0,1,22.15,49.3Z"/><path class="cls-1" d="M39.07,46.51s.53-.63.7-.63a2.7,2.7,0,0,1,1.51,1.48c.38,1,.39,1.95.1,2s-.79.13-.79,0,.41-1.25-.06-1.91A3.33,3.33,0,0,0,39.07,46.51Z"/><path class="cls-1" d="M24.38,48.58c.2.07,2.21,1.44,6.9,1.27a27.71,27.71,0,0,0,7.79-1.56,1.86,1.86,0,0,1,.17.83c0,.17-3.35,1.85-8.12,1.77s-6.94-1.23-7-1.4S24.26,48.54,24.38,48.58Z"/></g></svg>